Coordinates
version=1
nRows=9
nColumns=42
inDegrees=yes

Units are S.I. units (second, meters, Newtons, ...)
If the header above contains a line with 'inDegrees', this indicates whether rotational values are in degrees (yes) or radians (no).

endheader
time	pelvis_tilt	pelvis_list	pelvis_rotation	pelvis_tx	pelvis_ty	pelvis_tz	hip_flexion_r	hip_adduction_r	hip_rotation_r	knee_angle_r	knee_adduction_r	knee_angle_r_beta	ankle_angle_r	subtalar_angle_r	mtp_angle_r	hip_flexion_l	hip_adduction_l	hip_rotation_l	knee_angle_l	knee_adduction_l	knee_angle_l_beta	ankle_angle_l	subtalar_angle_l	mtp_angle_l	lumbar_extension	lumbar_bending	lumbar_rotation	arm_flex_r	arm_add_r	arm_rot_r	elbow_flex_r	pro_sup_r	wrist_flex_r	wrist_dev_r	arm_flex_l	arm_add_l	arm_rot_l	elbow_flex_l	pro_sup_l	wrist_flex_l	wrist_dev_l
      2.98000000	     21.25907752	      1.19521590	      4.27971299	      0.85507063	      0.94243397	     -0.54909411	      4.97983167	     -6.73333841	    -24.06547297	     54.43483713	    -12.96010471	      0.95006714	     13.06871343	     19.53789365	     -7.50144274	    -14.45716706	      6.56579732	     -1.68753911	     23.00812464	     -2.14097817	      0.40156753	     20.43260967	     -7.18498912	     -7.50144274	    -35.05671417	     -2.96283983	      1.37696915	     12.83479043	    -11.91267815	    -14.60921150	     30.64152666	     90.00000001	      0.00000000	      0.00000000	      0.74122219	    -22.07585925	      6.08101824	     69.60089243	     90.00000001	      0.00000000	      0.00000000
      2.99000000	     21.43423028	      0.95257640	      4.10588581	      0.85911609	      0.94304678	     -0.55008208	      5.24642719	     -6.01338608	    -24.38366903	     52.45820702	    -13.30094684	      0.91556843	     12.87236598	     22.13381952	     -7.50137749	    -15.24637101	      6.41412534	     -1.57498274	     22.30166502	     -2.07195091	      0.38923748	     20.51104090	     -7.35777696	     -7.50137749	    -35.26305227	     -2.80394100	      1.51727392	     12.65317316	    -11.91038623	    -15.27886020	     30.21906043	     90.00000001	      0.00000000	      0.00000000	      0.68456664	    -22.00879690	      5.78356511	     69.31808220	     90.00000001	      0.00000000	      0.00000000
      3.00000000	     21.29226216	      0.85418821	      3.94131529	      0.86292757	      0.94296540	     -0.55111115	      5.90542063	     -5.55512267	    -23.89594022	     50.91881463	    -12.85702960	      0.88870097	     12.67418343	     23.05255284	     -7.50133788	    -15.47819299	      6.44945352	     -1.71361888	     22.03620988	     -2.09947957	      0.38460442	     20.63342473	     -7.33960807	     -7.50133788	    -35.18083812	     -2.81216458	      1.58979329	     12.35613098	    -11.95857686	    -15.50194698	     29.99185800	     90.00000001	      0.00000000	      0.00000000	      0.63397778	    -22.01004148	      5.65076859	     69.13676861	     90.00000001	      0.00000000	      0.00000000
      3.01000000	     20.93070820	      0.93726945	      3.87094795	      0.86661885	      0.94234035	     -0.55235335	      6.85460049	     -5.44433603	    -23.59356281	     49.71826516	    -12.30840160	      0.86774743	     12.62682440	     22.95189766	     -7.50131987	    -15.33968282	      6.68508979	     -1.89821013	     22.05256383	     -2.17854468	      0.38488985	     20.74532442	     -7.17824277	     -7.50131987	    -34.89547114	     -2.96973666	      1.47971867	     11.92015503	    -12.00256241	    -15.52572751	     30.03014092	     90.00000001	      0.00000000	      0.00000000	      0.54804361	    -22.07158013	      5.59143642	     69.16645340	     90.00000001	      0.00000000	      0.00000000
      3.02000000	     21.15935021	      0.65830679	      3.69962214	      0.87073325	      0.94299148	     -0.55316716	      6.84224971	     -4.63087062	    -23.36852792	     47.54799693	    -12.17941314	      0.82986910	     12.31847033	     25.19433338	     -7.50127244	    -16.20765079	      6.47195080	     -1.88661083	     21.28374641	     -2.13819589	      0.37147145	     20.84089105	     -7.18293594	     -7.50127244	    -35.15552657	     -2.77383610	      1.64821154	     11.73620250	    -12.00391752	    -16.19372596	     29.61308844	     90.00000001	      0.00000000	      0.00000000	      0.46851701	    -21.98252285	      5.34837359	     69.00486844	     90.00000001	      0.00000000	      0.00000000
      3.03000000	     20.85539304	      0.68857760	      3.52237355	      0.87447650	      0.94241850	     -0.55413837	      7.61787439	     -4.34512346	    -22.78605903	     46.14207940	    -11.67342905	      0.80533121	     12.19727564	     25.52222328	     -7.50125265	    -16.19615764	      6.71047700	     -2.08466178	     21.15057763	     -2.32157212	      0.36914722	     21.10668519	     -7.13963479	     -7.50125265	    -34.91989735	     -2.91891016	      1.64922445	     11.39141973	    -12.04167987	    -16.28705989	     29.49538512	     90.00000001	      0.00000000	      0.00000000	      0.39012442	    -22.01454143	      5.30630997	     68.98916204	     90.00000001	      0.00000000	      0.00000000
      3.04000000	     20.83618300	      0.54806746	      3.35409585	      0.87847664	      0.94245488	     -0.55495664	      7.88116319	     -3.85282203	    -22.25361745	     44.40581976	    -11.06684376	      0.77502776	     11.98721843	     26.67037454	     -7.50122939	    -16.61898107	      6.60780530	     -2.32750835	     20.75242273	     -2.19522110	      0.36219810	     21.17858073	     -6.98389644	     -7.50122939	    -34.94354199	     -2.87815576	      1.77796427	     11.11217512	    -12.09104397	    -16.60077151	     29.15392289	     90.00000001	      0.00000000	      0.00000000	      0.35056808	    -21.96533609	      5.21394165	     68.91351032	     90.00000001	      0.00000000	      0.00000000
      3.05000000	     20.78705200	      0.47712205	      3.29258583	      0.88250811	      0.94235823	     -0.55593120	      8.16477862	     -3.44198334	    -22.26568548	     42.70729235	    -10.85694971	      0.74538287	     11.85937521	     27.73182309	     -7.50118983	    -16.98781522	      6.61706992	     -2.46422606	     20.41993480	     -2.23707176	      0.35639510	     21.31907319	     -6.67731707	     -7.50118983	    -34.95083272	     -2.85698207	      1.76472475	     10.82594730	    -12.05618447	    -17.21388636	     28.96079957	     90.00000001	      0.00000000	      0.00000000	      0.27516335	    -21.96423446	      5.13959520	     68.93128575	     90.00000001	      0.00000000	      0.00000000
      3.06000000	     20.65926115	      0.44186795	      3.22072934	      0.88654150	      0.94204634	     -0.55688399	      8.52991513	     -3.10342670	    -22.21618969	     41.12560683	    -10.59121149	      0.71777725	     11.75885445	     28.73036227	     -7.50111611	    -17.21402710	      6.66192708	     -2.75645565	     20.21211783	     -2.29447084	      0.35276800	     21.60014361	     -6.25845117	     -7.50111611	    -34.86679033	     -2.87022143	      1.76666052	     10.56566094	    -11.99489943	    -18.06976736	     28.68268056	     90.00000001	      0.00000000	      0.00000000	      0.20849789	    -21.95061227	      5.12964547	     68.95354291	     90.00000001	      0.00000000	      0.00000000
